<svg width="71" height="57" viewBox="0 0 71 57" fill="none" xmlns="http://www.w3.org/2000/svg">
<g id="Frame 64" clip-path="url(#clip0_182_134)">
<path id="Vector" d="M66.1956 2.96687C68.3058 4.70129 70.2137 7.30311 70.7089 10.0365C71.102 14.3563 71.0109 17.8486 68.3535 21.504C65.9618 24.3407 63.0404 26.0576 59.3973 26.7992C59.0802 26.866 58.7631 26.9327 58.4363 27.0015C58.1039 27.0715 57.7714 27.1414 57.4289 27.2135C50.8889 28.6504 45.6963 31.1128 41.9517 36.843C39.835 40.4061 38.95 44.1954 38.7264 48.2862C38.7115 48.542 38.6965 48.7979 38.6811 49.0614C38.6446 49.6882 38.6096 50.315 38.5749 50.9419C37.3979 50.0089 36.9954 48.7435 36.4968 47.3794C36.3611 47.0127 36.3611 47.0127 36.2226 46.6385C32.6517 36.6811 33.2025 25.6235 37.5589 16.0253C40.6876 9.51382 45.9054 3.54701 52.7749 0.850958C57.6539 -0.856604 62.0597 0.0846976 66.1956 2.96687Z" fill="#0257CC"/>
<path id="Vector_2" d="M17.794 9.14145C23.4444 12.4291 27.2554 17.621 29.5696 23.6505C29.7058 23.9845 29.842 24.3185 29.9823 24.6626C32.055 30.7856 31.9208 39.5194 29.2233 45.4142C28.9947 45.6422 28.7661 45.8702 28.5306 46.1051C28.4877 45.7951 28.4449 45.4852 28.4007 45.1659C27.6367 40.5554 25.8213 35.2423 21.9501 32.2869C19.8533 31.1274 17.8177 30.6343 15.4562 30.3437C15.0029 30.2805 15.0029 30.2805 14.5405 30.2159C13.221 30.0326 11.9021 29.8683 10.5777 29.7243C7.00619 29.297 4.30178 27.9521 2.02602 25.1187C0.0308742 22.0782 -0.365459 18.7126 0.29431 15.1721C1.15772 12.1759 2.9718 10.1986 5.55302 8.52881C9.53954 6.44787 13.9692 7.02378 17.794 9.14145Z" fill="#0257CC"/>
<path id="Vector_3" d="M44.1157 33.6689C44.23 33.6689 44.3443 33.6689 44.462 33.6689C44.5799 34.1285 44.5799 34.1285 44.7001 34.5974C45.6343 36.949 47.4325 37.8266 49.6139 38.8076C52.2263 40.0508 54.6949 41.4208 55.7398 44.3065C56.47 47.9808 55.9031 50.9241 53.8565 53.986C52.299 55.5853 50.4895 56.6849 48.2542 56.9305C45.1176 56.9679 43.4501 56.4271 40.9337 54.6553C39.3287 53.09 38.2982 52.0401 38.1494 49.7164C38.2719 43.9275 39.9961 37.8735 44.1157 33.6689Z" fill="#88A9FD"/>
<path id="Vector_4" d="M22.6425 32.9785C26.0433 35.3914 27.5786 39.7852 28.5303 43.6876C28.6508 44.0643 28.6508 44.0643 28.7738 44.4487C29.1791 46.0526 28.6621 47.0254 27.8592 48.3728C26.4224 50.4325 24.5256 52.7964 21.9498 53.3603C20.3108 53.5525 19.1758 53.5347 17.6855 52.7774C16.3087 51.5958 14.7913 50.1363 14.5603 48.2797C14.5146 44.6559 14.5146 44.6559 16.062 42.9967C17.1357 41.985 18.2398 41.0187 19.4253 40.1386C21.1449 38.8413 22.0673 37.3228 22.4571 35.2186C22.5432 34.4709 22.6076 33.7301 22.6425 32.9785Z" fill="#87A9FC"/>
</g>
<defs>
<clipPath id="clip0_182_134">
<rect width="71" height="57" fill="white"/>
</clipPath>
</defs>
</svg>
