<svg width="70" height="69" viewBox="0 0 70 69" fill="none" xmlns="http://www.w3.org/2000/svg">
<g id="Frame">
<path id="Vector" d="M48.8545 14.375C37.9812 14.375 29.167 23.0632 29.167 33.7812C29.167 44.4992 37.9812 53.1875 48.8545 53.1875C59.7278 53.1875 68.542 44.4992 68.542 33.7812C68.542 23.0632 59.7278 14.375 48.8545 14.375ZM48.8545 43.125C43.6191 43.125 39.3753 38.9419 39.3753 33.7812C39.3753 28.6206 43.6191 24.4375 48.8545 24.4375C54.0899 24.4375 58.3337 28.6206 58.3337 33.7812C58.3337 38.9419 54.0899 43.125 48.8545 43.125Z" fill="#FFB300"/>
<path id="Vector_2" d="M27.9122 40.3233V40.319C26.1913 42.0497 23.7968 43.125 21.1455 43.125C15.9101 43.125 11.6663 38.9419 11.6663 33.7812C11.6663 28.6206 15.9101 24.4375 21.1455 24.4375C23.8143 24.4375 26.222 25.5286 27.9443 27.278L33.413 18.6185C30.0472 15.9692 25.7874 14.375 21.1455 14.375C10.2722 14.375 1.45801 23.0632 1.45801 33.7812C1.45801 44.4992 10.2722 53.1875 21.1455 53.1875C25.7597 53.1875 29.9932 51.6106 33.3503 48.9914L27.9122 40.3233Z" fill="#FFB300"/>
<path id="Vector_3" d="M11.6663 33.781C11.6663 31.2121 12.7193 28.8863 14.4211 27.1972L7.34092 19.9551C3.71259 23.4741 1.45801 28.3659 1.45801 33.781C1.45801 39.1701 3.68926 44.0447 7.28842 47.5608L14.4838 40.4251C12.7455 38.7317 11.6663 36.3814 11.6663 33.781Z" fill="#F57C00"/>
<path id="Vector_4" d="M55.6062 27.2275C57.2906 28.9136 58.3333 31.2266 58.3333 33.781C58.3333 38.9416 54.0896 43.1248 48.8541 43.1248C46.1912 43.1248 43.7879 42.0395 42.0656 40.2958L34.7754 47.3323C38.3512 50.9404 43.3329 53.1873 48.8541 53.1873C59.7275 53.1873 68.5416 44.499 68.5416 33.781C68.5416 28.4853 66.3848 23.6912 62.8964 20.1895L55.6062 27.2275Z" fill="#F57C00"/>
</g>
</svg>
