<svg width="62" height="62" viewBox="0 0 62 62" fill="none" xmlns="http://www.w3.org/2000/svg">
<g id="Frame">
<path id="Vector" d="M33.584 21.9583H23.2507C18.2571 21.9583 14.209 17.9103 14.209 12.9167C14.209 7.92308 18.2571 3.875 23.2507 3.875H33.584V21.9583Z" fill="#E64A19"/>
<path id="Vector_2" d="M32.2923 40.0413H23.2507C18.2571 40.0413 14.209 35.9933 14.209 30.9997C14.209 26.0061 18.2571 21.958 23.2507 21.958H32.2923V40.0413Z" fill="#7C4DFF"/>
<path id="Vector_3" d="M23.2507 58.1253C18.2571 58.1253 14.209 54.0772 14.209 49.0837C14.209 44.0901 18.2571 40.042 23.2507 40.042H32.2923V49.0837C32.2923 54.0772 28.2442 58.1253 23.2507 58.1253Z" fill="#66BB6A"/>
<path id="Vector_4" d="M41.3327 21.9583H32.291V3.875H41.3327C46.3263 3.875 50.3743 7.92308 50.3743 12.9167C50.3743 17.9103 46.3263 21.9583 41.3327 21.9583Z" fill="#FF7043"/>
<path id="Vector_5" d="M41.3327 40.0413C46.3263 40.0413 50.3743 35.9932 50.3743 30.9997C50.3743 26.0061 46.3263 21.958 41.3327 21.958C36.3391 21.958 32.291 26.0061 32.291 30.9997C32.291 35.9932 36.3391 40.0413 41.3327 40.0413Z" fill="#29B6F6"/>
</g>
</svg>
