<svg width="70" height="67" viewBox="0 0 70 67" fill="none" xmlns="http://www.w3.org/2000/svg">
<g id="kaggle-svgrepo-com 1">
<rect width="70" height="67" rx="12" fill="white"/>
<path id="Vector" d="M50.6547 54.7854C50.6003 55.0014 50.3827 55.0733 49.9293 55.0733H42.6752C42.2218 55.0733 41.8591 54.9294 41.4964 54.6415L29.5688 42.5703L26.2546 45.0727V54.4292C26.2546 54.861 25.9825 55.0769 25.4385 55.0769H19.86C19.316 55.0769 19.0439 54.861 19.0439 54.4292V12.3216C19.0439 11.8897 19.316 11.6738 19.86 11.6738H25.3913C25.9354 11.6738 26.2074 11.8897 26.2074 12.3216V38.2317L40.4364 26.8097C40.8136 26.511 41.1908 26.3606 41.568 26.3606H49.0072C49.33 26.3606 49.5449 26.4678 49.6537 26.6808C49.7616 26.9687 49.7444 27.1127 49.563 27.2566L34.3329 38.9515C50.6547 54.0657 50.6547 54.7854 50.6547 54.7854Z" fill="#20BEFF"/>
</g>
</svg>
