<svg width="62" height="63" viewBox="0 0 62 63" fill="none" xmlns="http://www.w3.org/2000/svg">
<g id="mendeley-svgrepo-com 1" clip-path="url(#clip0_182_27)">
<path id="Vector" d="M30.9304 23.7907H30.9795C32.2267 23.7918 33.4432 24.1771 34.4635 24.8942C35.4838 25.6113 36.2584 26.6254 36.6819 27.7984C37.1054 28.9714 37.1572 30.2464 36.8302 31.4499C36.5032 32.6534 35.8134 33.727 34.8545 34.5244C34.2388 35.1062 33.476 35.509 32.6484 35.6895C32.1051 35.8465 31.5425 35.9265 30.9769 35.9272H30.9279C30.3492 35.9272 29.7886 35.8419 29.2564 35.6895C28.429 35.5084 27.6664 35.1057 27.0503 34.5244C26.3634 33.9565 25.8105 33.2438 25.4314 32.4372C25.0522 31.6306 24.8561 30.7502 24.857 29.8589C24.8591 28.2493 25.4998 26.7062 26.6385 25.5685C27.7772 24.4308 29.3208 23.7914 30.9304 23.7907ZM5.23145 48.2032C8.49161 48.6114 11.3849 46.2399 11.6924 42.9022C11.7892 41.8107 11.5995 40.7127 11.1421 39.7169C6.57478 29.6962 29.1092 29.4663 25.3014 38.9239L25.2755 38.9652C23.4749 41.8456 24.4514 45.5863 27.4429 47.3145C28.5434 47.9552 29.7628 48.2187 30.9537 48.167C32.1446 48.2187 33.3639 47.9552 34.4644 47.3145C37.4559 45.5837 38.4324 41.8456 36.6319 38.9652L36.606 38.9239C32.7982 29.4663 55.3352 29.6962 50.7627 39.7169C50.3064 40.713 50.1177 41.8109 50.215 42.9022C50.525 46.2399 53.4158 48.6114 56.6785 48.2032C58.0873 48.0214 59.387 47.3492 60.3494 46.3044C60.3494 46.3044 61.8659 45.0464 61.8426 41.8379C61.8219 39.2209 60.3494 37.7717 60.3494 37.7717C59.746 37.1597 59.0119 36.6922 58.2021 36.4041C57.3924 36.116 56.528 36.0148 55.6736 36.108C51.4912 36.015 50.8712 32.7394 52.0518 26.5652C52.4858 25.4699 52.6744 24.297 52.6356 23.1242C52.704 21.3163 52.2136 19.5312 51.2314 18.0118C50.2492 16.4924 48.8227 15.3126 47.146 14.6328C47.0453 14.5889 46.9445 14.5553 46.8412 14.5139C46.7277 14.4689 46.6122 14.4293 46.495 14.3951C44.6055 13.758 42.5556 13.7813 40.6811 14.4614C38.8067 15.1415 37.2186 16.4379 36.1772 18.1384C34.0718 20.4504 33.1185 21.8532 30.9537 21.8532C28.8948 21.8532 27.833 20.4504 25.7302 18.1384C24.6582 16.3819 23.0043 15.0571 21.0562 14.3943C19.1082 13.7316 16.9894 13.773 15.0688 14.5114C14.9654 14.5527 14.8647 14.5863 14.7614 14.6302C13.085 15.3101 11.6588 16.4901 10.677 18.0095C9.69522 19.5289 9.20544 21.3139 9.27436 23.1216C9.23303 24.2944 9.4242 25.4673 9.85561 26.5626C11.0362 32.7394 10.4162 36.0124 6.23636 36.1054C4.18778 35.8859 2.65845 36.7306 1.11361 38.278C-0.436388 39.8229 -0.307221 43.9614 1.11361 45.7671C2.14436 47.082 3.54195 47.9914 5.23145 48.2032Z" fill="#D20101"/>
</g>
<defs>
<clipPath id="clip0_182_27">
<rect width="62" height="62" fill="white" transform="translate(0 0.046875)"/>
</clipPath>
</defs>
</svg>
