<svg width="62" height="63" viewBox="0 0 62 63" fill="none" xmlns="http://www.w3.org/2000/svg">
<g id="Layer 1">
<g id="Layer 1_2">
<g id="Group">
<path id="Vector" d="M30.9971 0.046875C13.8773 0.046875 0 18.8137 0 41.9709V62.0469H5.71245V60.0433C5.71245 50.6479 11.3371 43.0326 18.2845 43.0326C25.2319 43.0326 30.8566 50.6479 30.8566 60.0433V62.0469H36.5691V60.0433C36.5691 46.3852 28.3808 35.3135 18.2845 35.3135C14.3514 35.3135 10.7108 36.9898 7.73171 39.8556C10.8513 31.466 17.2778 25.7026 24.6993 25.7026C35.1819 25.7026 43.6804 37.2054 43.6804 51.3743V62.0389H49.3928V51.3743C49.3928 32.9268 38.3366 17.9676 24.6993 17.9676C18.5655 17.9676 12.9584 20.9929 8.63891 25.998C12.8823 15.1497 21.2988 7.76594 31.0029 7.76594C44.968 7.76594 56.2875 23.0764 56.2875 41.9629V62.0389H62V41.9629C61.9941 18.8137 48.1169 0.046875 30.9971 0.046875Z" fill="white"/>
</g>
</g>
</g>
</svg>
