<svg width="62" height="58" viewBox="0 0 62 58" fill="none" xmlns="http://www.w3.org/2000/svg">
<g id="Frame">
<g clip-path="url(#clip0_182_100)">
<path id="Vector" d="M0 0V58H62V0H0ZM46.5 5.47148V18.85H52.7V39.15H46.5V52.7098L32.55 41.1098V50.75H29.45V40.9285L15.5 52.5285V39.15H9.3V18.85H15.5V5.65273L29.45 17.2527V5.98125H32.55V17.0715L46.5 5.47148ZM43.4 11.9285L35.0778 18.85H43.4V11.9285ZM18.6 12.1098V18.85H26.7042L18.6 12.1098ZM12.4 21.75V36.25H15.5V31.2486L26.9222 21.75H12.4ZM34.8599 21.75L46.5 31.4299V36.25H49.6V21.75H34.8599ZM29.45 23.5285L18.6 32.5514V46.0715L29.45 37.0515V23.5285ZM32.55 23.7098V37.2327L43.4 46.2527V32.7326L32.55 23.7098Z" fill="#8EAFBA"/>
</g>
</g>
<defs>
<clipPath id="clip0_182_100">
<rect width="62" height="58" rx="8" fill="white"/>
</clipPath>
</defs>
</svg>
