<svg width="70" height="70" viewBox="0 0 70 70" fill="none" xmlns="http://www.w3.org/2000/svg">
<g id="Frame 62" clip-path="url(#clip0_182_129)">
<circle id="Ellipse 5" cx="35" cy="35" r="35" fill="#6706CE"/>
<path id="Vector" fill-rule="evenodd" clip-rule="evenodd" d="M32.2851 31.7048C27.587 35.1145 21.6424 38.5691 21.0192 44.0875C20.7795 46.2859 21.978 49.8302 23.3683 52.1632C23.4641 52.3426 23.5121 52.5221 23.5121 52.7464C23.4641 53.3297 22.9847 53.7783 22.3615 53.7783C21.9301 53.7783 21.5465 53.554 21.163 53.3297C19.4372 52.3426 17.8552 51.0864 16.6087 49.6507C16.2252 49.2021 15.8896 48.7534 15.602 48.3048C15.3143 47.8561 15.0746 47.3626 14.8349 46.8691C14.5952 46.3756 14.4514 45.8821 14.3076 45.3886C14.1638 44.8951 14.0679 44.4016 13.972 43.8632C13.9241 43.3697 13.8761 42.8313 13.8761 42.3378C13.8761 41.7994 13.9241 41.3059 14.0199 40.7675C14.1158 40.2291 14.2117 39.7356 14.3555 39.1972C16.1293 32.961 23.3683 27.8016 29.0252 27.1286C33.963 26.5902 35.2574 29.5513 32.2851 31.7048ZM55.8717 41.3059C55.584 40.6329 54.769 40.2291 54.002 40.274C53.4747 40.3189 53.0432 40.588 52.6597 40.947C52.0844 41.4405 51.6529 42.1134 51.2215 42.7416C50.6941 43.4594 50.1668 44.1324 49.5915 44.8053C48.4409 46.1064 47.0986 47.2729 45.5645 48.1702C42.9278 49.6507 40.5308 50.3686 37.6544 49.0226C35.5451 47.4524 36.2642 45.568 37.99 44.0426C41.0102 41.4405 44.6057 39.601 47.4342 36.8194C50.1189 34.1724 52.4679 30.8972 52.9953 27.2632C53.1391 26.2313 53.1391 25.1994 52.9953 24.1675C52.1803 19.3221 47.4821 16.2713 42.784 14.9702C36.7915 13.3102 30.1758 13.8037 24.5188 16.2713C22.1698 17.3032 20.0125 18.6491 18.1428 20.2643C17.3278 20.9821 16.5128 21.7448 15.7937 22.5972C14.5952 23.9432 13.2529 25.4686 13.0132 27.2632C12.8694 28.3399 13.9241 29.1026 15.0267 28.9681C15.7937 28.8783 16.417 28.4745 16.9922 27.981C17.6155 27.4426 18.1907 26.8594 18.814 26.321C20.6836 24.661 22.6492 23.0907 24.9982 22.0589C28.0185 20.7578 31.3743 20.0848 34.6821 20.4437C38.0379 20.7578 42.1129 22.1935 43.3593 25.4237C44.6537 28.8334 41.8731 32.1535 39.3803 34.307C35.3054 37.8513 27.5391 41.4405 28.402 47.7216C28.8814 51.0864 31.4222 53.9129 34.7301 55.214C40.4349 57.4124 46.6672 54.7205 50.5983 50.5929C51.9406 49.2918 53.8582 47.0037 55.584 43.6388C55.9196 42.921 56.1593 42.0237 55.8717 41.3059Z" fill="white"/>
</g>
<defs>
<clipPath id="clip0_182_129">
<rect width="70" height="70" fill="white"/>
</clipPath>
</defs>
</svg>
