<svg width="76" height="76" viewBox="0 0 76 76" fill="none" xmlns="http://www.w3.org/2000/svg">
<g id="Frame" clip-path="url(#clip0_182_144)">
<g id="Page-1">
<g id="Social-Icons---Isolated">
<path id="Spotify" fill-rule="evenodd" clip-rule="evenodd" d="M60.42 33.82C48.26 26.6 27.93 25.84 16.34 29.45C14.44 30.02 12.54 28.88 11.97 27.17C11.4 25.27 12.54 23.37 14.25 22.8C27.74 18.81 49.97 19.57 64.03 27.93C65.74 28.88 66.3101 31.16 65.36 32.87C64.41 34.2 62.13 34.77 60.42 33.82ZM60.04 44.46C59.09 45.79 57.38 46.36 56.05 45.41C45.79 39.14 30.21 37.24 18.24 41.04C16.72 41.42 15.01 40.66 14.63 39.14C14.25 37.62 15.01 35.91 16.53 35.53C30.4 31.35 47.5 33.44 59.28 40.66C60.42 41.23 60.99 43.13 60.04 44.46ZM55.48 54.91C54.72 56.05 53.39 56.43 52.25 55.67C43.32 50.16 32.11 49.02 18.81 52.06C17.48 52.44 16.34 51.49 15.96 50.35C15.58 49.02 16.53 47.88 17.67 47.5C32.11 44.27 44.65 45.6 54.53 51.68C55.86 52.25 56.05 53.77 55.48 54.91ZM38 0C17.1 0 0 17.1 0 38C0 58.9 17.1 76 38 76C58.9 76 76 58.9 76 38C76 17.1 59.09 0 38 0Z" fill="#00DA5A"/>
</g>
</g>
</g>
<defs>
<clipPath id="clip0_182_144">
<rect width="76" height="76" fill="white"/>
</clipPath>
</defs>
</svg>
