<svg width="74" height="74" viewBox="0 0 74 74" fill="none" xmlns="http://www.w3.org/2000/svg">
<g id="Frame" clip-path="url(#clip0_316_145)">
<path id="Vector" d="M0 37C0 16.5655 16.5655 0 37 0C57.4345 0 74 16.5655 74 37C74 57.4345 57.4345 74 37 74C16.5655 74 0 57.4345 0 37Z" fill="#FF0000"/>
<path id="Vector_2" d="M55.9085 27.8631C55.4546 26.1195 54.1172 24.7465 52.4191 24.2804C49.3416 23.4336 36.9999 23.4336 36.9999 23.4336C36.9999 23.4336 24.6583 23.4336 21.5806 24.2804C19.8823 24.7465 18.545 26.1195 18.0911 27.8631C17.2666 31.0234 17.2666 37.6169 17.2666 37.6169C17.2666 37.6169 17.2666 44.2103 18.0911 47.3707C18.545 49.1144 19.8823 50.4874 21.5806 50.9536C24.6583 51.8003 36.9999 51.8003 36.9999 51.8003C36.9999 51.8003 49.3416 51.8003 52.4191 50.9536C54.1172 50.4874 55.4546 49.1144 55.9085 47.3707C56.7333 44.2103 56.7333 37.6169 56.7333 37.6169C56.7333 37.6169 56.7333 31.0234 55.9085 27.8631Z" fill="white"/>
<path id="Vector_3" d="M33.2998 44.3997V32.0664L43.1665 38.2332L33.2998 44.3997Z" fill="#FF0000"/>
</g>
<defs>
<clipPath id="clip0_316_145">
<rect width="74" height="74" fill="white"/>
</clipPath>
</defs>
</svg>
