<svg width="139" height="63" viewBox="0 0 139 63" fill="none" xmlns="http://www.w3.org/2000/svg">
<path d="M36.138 25.312C34.682 25.312 33.2867 25.1213 31.952 24.74C30.6173 24.3413 29.5427 23.83 28.728 23.206L30.158 20.034C30.938 20.5887 31.8567 21.048 32.914 21.412C33.9887 21.7587 35.072 21.932 36.164 21.932C36.996 21.932 37.6633 21.854 38.166 21.698C38.686 21.5247 39.0673 21.2907 39.31 20.996C39.5527 20.7013 39.674 20.3633 39.674 19.982C39.674 19.4967 39.4833 19.1153 39.102 18.838C38.7207 18.5433 38.218 18.3093 37.594 18.136C36.97 17.9453 36.2767 17.772 35.514 17.616C34.7687 17.4427 34.0147 17.2347 33.252 16.992C32.5067 16.7493 31.822 16.4373 31.198 16.056C30.574 15.6747 30.0627 15.172 29.664 14.548C29.2827 13.924 29.092 13.1267 29.092 12.156C29.092 11.116 29.3693 10.1713 29.924 9.322C30.496 8.45533 31.3453 7.77067 32.472 7.268C33.616 6.748 35.046 6.488 36.762 6.488C37.906 6.488 39.0327 6.62667 40.142 6.904C41.2513 7.164 42.2307 7.56267 43.08 8.1L41.78 11.298C40.9307 10.8127 40.0813 10.4573 39.232 10.232C38.3827 9.98933 37.5507 9.868 36.736 9.868C35.9213 9.868 35.254 9.96333 34.734 10.154C34.214 10.3447 33.8413 10.596 33.616 10.908C33.3907 11.2027 33.278 11.5493 33.278 11.948C33.278 12.416 33.4687 12.7973 33.85 13.092C34.2313 13.3693 34.734 13.5947 35.358 13.768C35.982 13.9413 36.6667 14.1147 37.412 14.288C38.1747 14.4613 38.9287 14.6607 39.674 14.886C40.4367 15.1113 41.13 15.4147 41.754 15.796C42.378 16.1773 42.8807 16.68 43.262 17.304C43.6607 17.928 43.86 18.7167 43.86 19.67C43.86 20.6927 43.574 21.6287 43.002 22.478C42.43 23.3273 41.572 24.012 40.428 24.532C39.3013 25.052 37.8713 25.312 36.138 25.312ZM51.1061 22.14L51.2101 17.2L57.7361 11.012H62.5721L56.3061 17.382L54.2001 19.098L51.1061 22.14ZM47.7521 25V5.708H51.8081V25H47.7521ZM58.1781 25L53.4461 19.124L55.9941 15.978L63.0921 25H58.1781ZM66.14 25V11.012H70.014V14.964L69.468 13.82C69.884 12.832 70.5513 12.0867 71.47 11.584C72.3886 11.064 73.5066 10.804 74.824 10.804V14.548C74.6506 14.5307 74.4946 14.522 74.356 14.522C74.2173 14.5047 74.07 14.496 73.914 14.496C72.8046 14.496 71.9033 14.8167 71.21 15.458C70.534 16.082 70.196 17.0613 70.196 18.396V25H66.14ZM78.5611 25V11.012H82.6171V25H78.5611ZM80.5891 9.062C79.8437 9.062 79.2371 8.84533 78.7691 8.412C78.3011 7.97867 78.0671 7.44133 78.0671 6.8C78.0671 6.15867 78.3011 5.62133 78.7691 5.188C79.2371 4.75467 79.8437 4.538 80.5891 4.538C81.3344 4.538 81.9411 4.746 82.4091 5.162C82.8771 5.56067 83.1111 6.08067 83.1111 6.722C83.1111 7.398 82.8771 7.96133 82.4091 8.412C81.9584 8.84533 81.3517 9.062 80.5891 9.062ZM95.9494 25.208C94.7707 25.208 93.7394 24.948 92.8554 24.428C91.9714 23.908 91.278 23.1193 90.7754 22.062C90.29 20.9873 90.0474 19.6353 90.0474 18.006C90.0474 16.3593 90.2814 15.0073 90.7494 13.95C91.2174 12.8927 91.8934 12.104 92.7774 11.584C93.6614 11.064 94.7187 10.804 95.9494 10.804C97.2667 10.804 98.4454 11.1073 99.4854 11.714C100.543 12.3033 101.375 13.1353 101.981 14.21C102.605 15.2847 102.917 16.55 102.917 18.006C102.917 19.4793 102.605 20.7533 101.981 21.828C101.375 22.9027 100.543 23.7347 99.4854 24.324C98.4454 24.9133 97.2667 25.208 95.9494 25.208ZM87.6814 30.044V11.012H91.5554V13.872L91.4774 18.032L91.7374 22.166V30.044H87.6814ZM95.2474 21.88C95.9234 21.88 96.5214 21.724 97.0414 21.412C97.5787 21.1 98.0034 20.658 98.3154 20.086C98.6447 19.4967 98.8094 18.8033 98.8094 18.006C98.8094 17.1913 98.6447 16.498 98.3154 15.926C98.0034 15.354 97.5787 14.912 97.0414 14.6C96.5214 14.288 95.9234 14.132 95.2474 14.132C94.5714 14.132 93.9647 14.288 93.4274 14.6C92.89 14.912 92.4654 15.354 92.1534 15.926C91.8414 16.498 91.6854 17.1913 91.6854 18.006C91.6854 18.8033 91.8414 19.4967 92.1534 20.086C92.4654 20.658 92.89 21.1 93.4274 21.412C93.9647 21.724 94.5714 21.88 95.2474 21.88ZM111.639 25.208C110.443 25.208 109.29 25.0693 108.181 24.792C107.089 24.4973 106.222 24.1333 105.581 23.7L106.933 20.788C107.574 21.1867 108.328 21.516 109.195 21.776C110.079 22.0187 110.945 22.14 111.795 22.14C112.731 22.14 113.389 22.0273 113.771 21.802C114.169 21.5767 114.369 21.2647 114.369 20.866C114.369 20.5367 114.213 20.294 113.901 20.138C113.606 19.9647 113.207 19.8347 112.705 19.748C112.202 19.6613 111.647 19.5747 111.041 19.488C110.451 19.4013 109.853 19.2887 109.247 19.15C108.64 18.994 108.085 18.7687 107.583 18.474C107.08 18.1793 106.673 17.7807 106.361 17.278C106.066 16.7753 105.919 16.1253 105.919 15.328C105.919 14.444 106.17 13.664 106.673 12.988C107.193 12.312 107.938 11.7833 108.909 11.402C109.879 11.0033 111.041 10.804 112.393 10.804C113.346 10.804 114.317 10.908 115.305 11.116C116.293 11.324 117.116 11.6273 117.775 12.026L116.423 14.912C115.747 14.5133 115.062 14.2447 114.369 14.106C113.693 13.95 113.034 13.872 112.393 13.872C111.491 13.872 110.833 13.9933 110.417 14.236C110.001 14.4787 109.793 14.7907 109.793 15.172C109.793 15.5187 109.94 15.7787 110.235 15.952C110.547 16.1253 110.954 16.264 111.457 16.368C111.959 16.472 112.505 16.5673 113.095 16.654C113.701 16.7233 114.308 16.836 114.915 16.992C115.521 17.148 116.067 17.3733 116.553 17.668C117.055 17.9453 117.463 18.3353 117.775 18.838C118.087 19.3233 118.243 19.9647 118.243 20.762C118.243 21.6287 117.983 22.4 117.463 23.076C116.943 23.7347 116.189 24.2547 115.201 24.636C114.23 25.0173 113.043 25.208 111.639 25.208ZM122.045 25V11.012H126.101V25H122.045ZM124.073 9.062C123.328 9.062 122.721 8.84533 122.253 8.412C121.785 7.97867 121.551 7.44133 121.551 6.8C121.551 6.15867 121.785 5.62133 122.253 5.188C122.721 4.75467 123.328 4.538 124.073 4.538C124.818 4.538 125.425 4.746 125.893 5.162C126.361 5.56067 126.595 6.08067 126.595 6.722C126.595 7.398 126.361 7.96133 125.893 8.412C125.442 8.84533 124.836 9.062 124.073 9.062Z" fill="#D9D9D9"/>
<path d="M18.464 50.544C18.6987 50.544 18.9067 50.6347 19.088 50.816L20.784 52.656C19.8453 53.8187 18.688 54.7093 17.312 55.328C15.9467 55.9467 14.304 56.256 12.384 56.256C10.6667 56.256 9.12 55.9627 7.744 55.376C6.37867 54.7893 5.21067 53.9733 4.24 52.928C3.26933 51.8827 2.52267 50.6347 2 49.184C1.488 47.7333 1.232 46.1493 1.232 44.432C1.232 42.6933 1.50933 41.104 2.064 39.664C2.61867 38.2133 3.39733 36.9653 4.4 35.92C5.41333 34.8747 6.61867 34.064 8.016 33.488C9.41333 32.9013 10.96 32.608 12.656 32.608C14.3413 32.608 15.8347 32.8853 17.136 33.44C18.448 33.9947 19.5627 34.72 20.48 35.616L19.04 37.616C18.9547 37.744 18.8427 37.856 18.704 37.952C18.576 38.048 18.3947 38.096 18.16 38.096C18 38.096 17.8347 38.0533 17.664 37.968C17.4933 37.872 17.3067 37.76 17.104 37.632C16.9013 37.4933 16.6667 37.344 16.4 37.184C16.1333 37.024 15.824 36.88 15.472 36.752C15.12 36.6133 14.7093 36.5013 14.24 36.416C13.7813 36.32 13.248 36.272 12.64 36.272C11.6053 36.272 10.656 36.4587 9.792 36.832C8.93867 37.1947 8.20267 37.728 7.584 38.432C6.96533 39.1253 6.48533 39.9787 6.144 40.992C5.80267 41.9947 5.632 43.1413 5.632 44.432C5.632 45.7333 5.81333 46.8907 6.176 47.904C6.54933 48.9173 7.05067 49.7707 7.68 50.464C8.30933 51.1573 9.05067 51.6907 9.904 52.064C10.7573 52.4267 11.6747 52.608 12.656 52.608C13.2427 52.608 13.7707 52.576 14.24 52.512C14.72 52.448 15.1573 52.3467 15.552 52.208C15.9573 52.0693 16.336 51.8933 16.688 51.68C17.0507 51.456 17.408 51.184 17.76 50.864C17.8667 50.768 17.9787 50.6933 18.096 50.64C18.2133 50.576 18.336 50.544 18.464 50.544ZM33.2285 39.328C34.4445 39.328 35.5485 39.5253 36.5405 39.92C37.5432 40.3147 38.3965 40.8747 39.1005 41.6C39.8152 42.3253 40.3645 43.2107 40.7485 44.256C41.1325 45.3013 41.3245 46.4693 41.3245 47.76C41.3245 49.0613 41.1325 50.2347 40.7485 51.28C40.3645 52.3253 39.8152 53.216 39.1005 53.952C38.3965 54.688 37.5432 55.2533 36.5405 55.648C35.5485 56.0427 34.4445 56.24 33.2285 56.24C32.0018 56.24 30.8872 56.0427 29.8845 55.648C28.8818 55.2533 28.0232 54.688 27.3085 53.952C26.6045 53.216 26.0552 52.3253 25.6605 51.28C25.2765 50.2347 25.0845 49.0613 25.0845 47.76C25.0845 46.4693 25.2765 45.3013 25.6605 44.256C26.0552 43.2107 26.6045 42.3253 27.3085 41.6C28.0232 40.8747 28.8818 40.3147 29.8845 39.92C30.8872 39.5253 32.0018 39.328 33.2285 39.328ZM33.2285 53.2C34.5938 53.2 35.6018 52.7413 36.2525 51.824C36.9138 50.9067 37.2445 49.5627 37.2445 47.792C37.2445 46.0213 36.9138 44.672 36.2525 43.744C35.6018 42.816 34.5938 42.352 33.2285 42.352C31.8418 42.352 30.8125 42.8213 30.1405 43.76C29.4792 44.688 29.1485 46.032 29.1485 47.792C29.1485 49.552 29.4792 50.896 30.1405 51.824C30.8125 52.7413 31.8418 53.2 33.2285 53.2Z" fill="#FF6B18"/>
<path d="M51.2355 41.6C51.5662 41.2693 51.9128 40.9653 52.2755 40.688C52.6488 40.4 53.0382 40.16 53.4435 39.968C53.8595 39.7653 54.3022 39.6107 54.7715 39.504C55.2408 39.3867 55.7528 39.328 56.3075 39.328C57.2035 39.328 57.9982 39.4827 58.6915 39.792C59.3848 40.0907 59.9608 40.5173 60.4195 41.072C60.8888 41.616 61.2408 42.272 61.4755 43.04C61.7208 43.7973 61.8435 44.6347 61.8435 45.552V56H57.8915V45.552C57.8915 44.5493 57.6622 43.776 57.2035 43.232C56.7448 42.6773 56.0462 42.4 55.1075 42.4C54.4248 42.4 53.7848 42.5547 53.1875 42.864C52.5902 43.1733 52.0248 43.5947 51.4915 44.128V56H47.5395V39.584H49.9555C50.4675 39.584 50.8035 39.824 50.9635 40.304L51.2355 41.6ZM72.498 41.6C72.8287 41.2693 73.1753 40.9653 73.538 40.688C73.9113 40.4 74.3007 40.16 74.706 39.968C75.122 39.7653 75.5647 39.6107 76.034 39.504C76.5033 39.3867 77.0153 39.328 77.57 39.328C78.466 39.328 79.2607 39.4827 79.954 39.792C80.6473 40.0907 81.2233 40.5173 81.682 41.072C82.1513 41.616 82.5033 42.272 82.738 43.04C82.9833 43.7973 83.106 44.6347 83.106 45.552V56H79.154V45.552C79.154 44.5493 78.9247 43.776 78.466 43.232C78.0073 42.6773 77.3087 42.4 76.37 42.4C75.6873 42.4 75.0473 42.5547 74.45 42.864C73.8527 43.1733 73.2873 43.5947 72.754 44.128V56H68.802V39.584H71.218C71.73 39.584 72.066 39.824 72.226 40.304L72.498 41.6ZM100.641 45.904C100.641 45.392 100.566 44.912 100.417 44.464C100.278 44.0053 100.065 43.6053 99.7765 43.264C99.4885 42.9227 99.1205 42.656 98.6725 42.464C98.2352 42.2613 97.7232 42.16 97.1365 42.16C95.9952 42.16 95.0938 42.4853 94.4325 43.136C93.7818 43.7867 93.3658 44.7093 93.1845 45.904H100.641ZM93.1045 48.288C93.1685 49.1307 93.3178 49.8613 93.5525 50.48C93.7872 51.088 94.0965 51.5947 94.4805 52C94.8645 52.3947 95.3178 52.6933 95.8405 52.896C96.3738 53.088 96.9605 53.184 97.6005 53.184C98.2405 53.184 98.7898 53.1093 99.2485 52.96C99.7178 52.8107 100.123 52.6453 100.465 52.464C100.817 52.2827 101.121 52.1173 101.377 51.968C101.643 51.8187 101.899 51.744 102.145 51.744C102.475 51.744 102.721 51.8667 102.881 52.112L104.017 53.552C103.579 54.064 103.089 54.496 102.545 54.848C102.001 55.1893 101.43 55.4667 100.833 55.68C100.246 55.8827 99.6432 56.0267 99.0245 56.112C98.4165 56.1973 97.8245 56.24 97.2485 56.24C96.1072 56.24 95.0458 56.0533 94.0645 55.68C93.0832 55.296 92.2298 54.736 91.5045 54C90.7792 53.2533 90.2085 52.336 89.7925 51.248C89.3765 50.1493 89.1685 48.88 89.1685 47.44C89.1685 46.32 89.3498 45.2693 89.7125 44.288C90.0752 43.296 90.5925 42.4373 91.2645 41.712C91.9472 40.976 92.7738 40.3947 93.7445 39.968C94.7258 39.5413 95.8298 39.328 97.0565 39.328C98.0912 39.328 99.0458 39.4933 99.9205 39.824C100.795 40.1547 101.547 40.64 102.177 41.28C102.806 41.9093 103.297 42.688 103.649 43.616C104.011 44.5333 104.193 45.584 104.193 46.768C104.193 47.3653 104.129 47.7707 104.001 47.984C103.873 48.1867 103.627 48.288 103.265 48.288H93.1045ZM122.118 43.056C122.001 43.2053 121.884 43.3227 121.766 43.408C121.66 43.4933 121.5 43.536 121.286 43.536C121.084 43.536 120.886 43.4773 120.694 43.36C120.502 43.232 120.273 43.0933 120.006 42.944C119.74 42.784 119.42 42.6453 119.046 42.528C118.684 42.4 118.23 42.336 117.686 42.336C116.993 42.336 116.385 42.464 115.862 42.72C115.34 42.9653 114.902 43.3227 114.55 43.792C114.209 44.2613 113.953 44.832 113.782 45.504C113.612 46.1653 113.526 46.9173 113.526 47.76C113.526 48.6347 113.617 49.4133 113.798 50.096C113.99 50.7787 114.262 51.3547 114.614 51.824C114.966 52.2827 115.393 52.6347 115.894 52.88C116.396 53.1147 116.961 53.232 117.59 53.232C118.22 53.232 118.726 53.1573 119.11 53.008C119.505 52.848 119.836 52.6773 120.102 52.496C120.369 52.304 120.598 52.1333 120.79 51.984C120.993 51.824 121.217 51.744 121.462 51.744C121.782 51.744 122.022 51.8667 122.182 52.112L123.318 53.552C122.881 54.064 122.406 54.496 121.894 54.848C121.382 55.1893 120.849 55.4667 120.294 55.68C119.75 55.8827 119.185 56.0267 118.598 56.112C118.022 56.1973 117.446 56.24 116.87 56.24C115.857 56.24 114.902 56.0533 114.006 55.68C113.11 55.296 112.326 54.7413 111.654 54.016C110.982 53.2907 110.449 52.4053 110.054 51.36C109.67 50.304 109.478 49.104 109.478 47.76C109.478 46.5547 109.649 45.44 109.99 44.416C110.342 43.3813 110.854 42.4907 111.526 41.744C112.198 40.9867 113.03 40.3947 114.022 39.968C115.014 39.5413 116.156 39.328 117.446 39.328C118.673 39.328 119.745 39.5253 120.662 39.92C121.59 40.3147 122.422 40.88 123.158 41.616L122.118 43.056ZM134.468 56.256C133.038 56.256 131.94 55.856 131.172 55.056C130.414 54.2453 130.036 53.1307 130.036 51.712V42.544H128.356C128.142 42.544 127.961 42.4747 127.812 42.336C127.662 42.1973 127.588 41.9893 127.588 41.712V40.144L130.228 39.712L131.06 35.232C131.113 35.0187 131.214 34.8533 131.364 34.736C131.513 34.6187 131.705 34.56 131.94 34.56H133.988V39.728H138.372V42.544H133.988V51.44C133.988 51.952 134.11 52.352 134.356 52.64C134.612 52.928 134.958 53.072 135.396 53.072C135.641 53.072 135.844 53.0453 136.004 52.992C136.174 52.928 136.318 52.864 136.436 52.8C136.564 52.736 136.676 52.6773 136.772 52.624C136.868 52.56 136.964 52.528 137.06 52.528C137.177 52.528 137.273 52.56 137.348 52.624C137.422 52.6773 137.502 52.7627 137.588 52.88L138.772 54.8C138.196 55.28 137.534 55.6427 136.788 55.888C136.041 56.1333 135.268 56.256 134.468 56.256Z" fill="#0E283F"/>
</svg>
