<svg width="62" height="62" viewBox="0 0 62 62" fill="none" xmlns="http://www.w3.org/2000/svg">
<g id="canva 1">
<path id="Vector" d="M31.0001 62.0002C47.7785 62.0002 61.3801 48.3986 61.3801 31.6202C61.3801 14.8418 47.7785 1.24023 31.0001 1.24023C14.2217 1.24023 0.620117 14.8418 0.620117 31.6202C0.620117 48.3986 14.2217 62.0002 31.0001 62.0002Z" fill="#20C4CB"/>
<path id="Vector_2" d="M38.8741 36.7037C37.6341 38.0677 35.8981 38.7497 35.0921 38.7497C34.1621 38.7497 33.6661 38.1917 33.5421 37.3237C33.4801 37.0137 33.5421 36.6417 33.6041 36.3317C33.9141 34.4097 34.5961 33.1697 34.5961 32.8597C34.5961 32.7357 34.5341 32.6737 34.4721 32.6737C33.8521 32.6737 31.7441 34.8437 31.4341 36.2697L31.1861 37.4477C31.0001 38.2537 30.2561 38.7497 29.6981 38.7497C29.4501 38.7497 29.2641 38.6257 29.2021 38.3157C29.2021 38.1917 29.2021 38.0677 29.2021 37.9437L29.3261 37.3237C28.2101 38.1917 26.9701 38.7497 26.4121 38.7497C25.6061 38.7497 25.1721 38.3157 25.0481 37.6957C24.5521 38.3777 23.8701 38.7497 23.1261 38.7497C22.1961 38.7497 21.3281 38.1297 20.8941 37.1997C20.2741 37.8817 19.5301 38.5637 18.6621 39.1217C17.3601 39.9277 15.9341 40.6097 14.2601 40.6097C12.7101 40.6097 11.3461 39.8037 10.6641 39.1217C9.54807 38.1297 8.99007 36.5797 8.80407 35.2157C8.24607 30.8757 10.9121 25.1097 15.0661 22.6297C15.9961 22.0717 17.0501 21.7617 18.0421 21.7617C20.0261 21.7617 21.5141 23.1877 21.7001 24.8617C21.8861 26.4117 21.2661 27.7137 19.5921 28.5197C18.7241 28.9537 18.2901 28.9537 18.1661 28.7057C18.1041 28.5817 18.1041 28.3337 18.2901 28.2097C19.9021 26.9077 19.9021 25.7917 19.7161 24.2417C19.5921 23.2497 18.9721 22.6297 18.2281 22.6297C15.0041 22.6297 10.5401 29.6357 11.1601 34.7197C11.4081 36.7037 12.6481 38.9977 15.1281 38.9977C15.9341 38.9977 16.8641 38.7497 17.6081 38.3777C18.9721 37.6957 19.7781 37.1377 20.5221 36.2077C20.3361 33.8517 22.3821 30.8757 25.3581 30.8757C26.6601 30.8757 27.7141 31.3717 27.8381 32.4257C28.0241 33.7277 26.9081 33.9757 26.4741 33.9757C26.1021 33.9757 25.5441 33.8517 25.4821 33.5417C25.4201 33.1697 26.2881 33.3557 26.1641 32.5497C26.1021 32.0537 25.5441 31.8677 25.0481 31.8677C23.1881 31.8677 22.1341 34.4717 22.3201 36.0837C22.3821 36.8277 22.8161 37.5717 23.4361 37.5717C23.9941 37.5717 24.8001 36.7657 25.0481 35.6497C25.2341 34.8437 25.9781 34.3477 26.5361 34.3477C26.8461 34.3477 27.0321 34.4717 27.0321 34.7817C27.0321 34.9057 27.0321 35.0297 27.0321 35.1537C26.9701 35.4637 26.7221 36.6417 26.7221 36.8277C26.7221 37.0137 26.8461 37.3237 27.2181 37.3237C27.5281 37.3237 28.5201 36.7657 29.5121 35.8977C29.8221 34.3477 30.1941 32.4257 30.1941 32.3017C30.3181 31.6817 30.5661 30.9997 31.8061 30.9997C32.0541 30.9997 32.2401 31.1237 32.3021 31.4337C32.3021 31.5577 32.3021 31.6817 32.3021 31.8057L31.9921 33.4797C33.1081 31.9917 34.8441 30.8757 35.8981 30.8757C36.3321 30.8757 36.7041 31.1237 36.7661 31.5577C36.8281 31.8057 36.7041 32.2397 36.5801 32.7357C36.2081 33.7277 35.7741 35.2777 35.5261 36.5797C35.4641 36.8897 35.5881 37.2617 36.0841 37.2617C36.5181 37.2617 37.8201 36.7657 38.8741 35.3397C38.8741 35.1537 38.8741 34.9677 38.8741 34.7197C38.8741 33.6037 38.9361 32.7357 39.1841 32.0537C39.3701 31.3717 40.2381 30.7517 40.7961 30.7517C41.1061 30.7517 41.2921 30.9377 41.2921 31.2477C41.2921 31.3717 41.2921 31.4957 41.2301 31.6197C40.8581 32.7977 40.6101 33.8517 40.6101 34.9057C40.6101 35.5257 40.7341 36.4557 40.8581 36.9517C40.8581 37.0757 40.9201 37.1377 41.0441 37.1377C41.2301 37.1377 42.4701 35.9597 43.3381 34.4717C42.5321 33.9757 42.0981 33.0457 42.0981 31.9297C42.0981 30.0697 43.2141 29.0777 44.3301 29.0777C45.1981 29.0777 45.9421 29.6977 45.9421 30.9377C45.9421 31.7437 45.6321 32.6117 45.1981 33.4797C45.1981 33.4797 45.3841 33.4797 45.4461 33.4797C46.1281 33.4797 46.6241 33.1697 46.9341 32.7977C47.0581 32.6737 47.1821 32.5497 47.3061 32.4877C48.1741 31.4337 49.4761 30.6897 50.9641 30.6897C52.2661 30.6897 53.3201 31.1857 53.4441 32.2397C53.6301 33.5417 52.4521 33.8517 52.0801 33.8517C51.7081 33.8517 51.0881 33.7277 51.0881 33.4177C51.0261 33.1077 51.8941 33.2317 51.8321 32.4257C51.7701 31.9297 51.2121 31.6817 50.7161 31.6817C48.9801 31.6817 47.8021 33.9757 47.9881 35.8977C48.0501 36.6417 48.4221 37.3857 49.1041 37.3857C49.6621 37.3857 50.4681 36.5797 50.7781 35.4637C50.9641 34.7197 51.7081 34.1617 52.2661 34.1617C52.5141 34.1617 52.7621 34.2857 52.7621 34.5957C52.7621 34.7817 52.7001 35.0917 52.4521 36.3317C52.3281 36.8277 52.3281 37.3237 52.3281 37.6337C52.4521 38.3777 52.7621 38.8737 53.0721 39.1837C53.1961 39.3077 53.2581 39.4317 53.2581 39.4937C53.2581 39.6797 53.1341 39.8657 52.8861 39.8657C52.8241 39.8657 52.7001 39.8657 52.6381 39.8037C51.2741 39.2457 50.7161 38.3157 50.5921 37.5097C50.0961 38.1917 49.4141 38.5017 48.6701 38.5017C47.4921 38.5017 46.3141 37.4477 46.1281 36.0837C46.0661 35.5257 46.1281 34.9057 46.3141 34.3477C45.8181 34.6577 45.3221 34.8437 44.8261 34.8437C44.6401 34.8437 44.5161 34.8437 44.3921 34.8437C43.2141 36.5177 41.9741 37.6957 41.0441 38.2537C40.6721 38.4397 40.3001 38.5637 40.0521 38.5637C39.8661 38.5637 39.6181 38.5017 39.4941 38.3157C39.1221 38.0677 38.9361 37.4477 38.8741 36.7037ZM43.0901 31.1237C43.0901 31.8677 43.4621 32.6117 43.8961 33.1077C44.0821 32.6117 44.2061 32.1157 44.2061 31.6197C44.2061 30.6897 43.8341 30.2557 43.5861 30.2557C43.2141 30.2557 43.0901 30.7517 43.0901 31.1237Z" fill="white"/>
</g>
</svg>
