<svg width="151" height="64" viewBox="0 0 151 64" fill="none" xmlns="http://www.w3.org/2000/svg">
<path d="M45.216 34.328C46.432 34.328 47.536 34.5253 48.528 34.92C49.5307 35.3147 50.384 35.8747 51.088 36.6C51.8027 37.3253 52.352 38.2107 52.736 39.256C53.12 40.3013 53.312 41.4693 53.312 42.76C53.312 44.0613 53.12 45.2347 52.736 46.28C52.352 47.3253 51.8027 48.216 51.088 48.952C50.384 49.688 49.5307 50.2533 48.528 50.648C47.536 51.0427 46.432 51.24 45.216 51.24C43.9893 51.24 42.8747 51.0427 41.872 50.648C40.8693 50.2533 40.0107 49.688 39.296 48.952C38.592 48.216 38.0427 47.3253 37.648 46.28C37.264 45.2347 37.072 44.0613 37.072 42.76C37.072 41.4693 37.264 40.3013 37.648 39.256C38.0427 38.2107 38.592 37.3253 39.296 36.6C40.0107 35.8747 40.8693 35.3147 41.872 34.92C42.8747 34.5253 43.9893 34.328 45.216 34.328ZM45.216 48.2C46.5813 48.2 47.5893 47.7413 48.24 46.824C48.9013 45.9067 49.232 44.5627 49.232 42.792C49.232 41.0213 48.9013 39.672 48.24 38.744C47.5893 37.816 46.5813 37.352 45.216 37.352C43.8293 37.352 42.8 37.8213 42.128 38.76C41.4667 39.688 41.136 41.032 41.136 42.792C41.136 44.552 41.4667 45.896 42.128 46.824C42.8 47.7413 43.8293 48.2 45.216 48.2Z" fill="#FF6B18"/>
<path d="M63.223 36.6C63.5537 36.2693 63.9003 35.9653 64.263 35.688C64.6363 35.4 65.0257 35.16 65.431 34.968C65.847 34.7653 66.2897 34.6107 66.759 34.504C67.2283 34.3867 67.7403 34.328 68.295 34.328C69.191 34.328 69.9857 34.4827 70.679 34.792C71.3723 35.0907 71.9483 35.5173 72.407 36.072C72.8763 36.616 73.2283 37.272 73.463 38.04C73.7083 38.7973 73.831 39.6347 73.831 40.552V51H69.879V40.552C69.879 39.5493 69.6497 38.776 69.191 38.232C68.7323 37.6773 68.0337 37.4 67.095 37.4C66.4123 37.4 65.7723 37.5547 65.175 37.864C64.5777 38.1733 64.0123 38.5947 63.479 39.128V51H59.527V34.584H61.943C62.455 34.584 62.791 34.824 62.951 35.304L63.223 36.6ZM84.4855 36.6C84.8162 36.2693 85.1628 35.9653 85.5255 35.688C85.8988 35.4 86.2882 35.16 86.6935 34.968C87.1095 34.7653 87.5522 34.6107 88.0215 34.504C88.4908 34.3867 89.0028 34.328 89.5575 34.328C90.4535 34.328 91.2482 34.4827 91.9415 34.792C92.6348 35.0907 93.2108 35.5173 93.6695 36.072C94.1388 36.616 94.4908 37.272 94.7255 38.04C94.9708 38.7973 95.0935 39.6347 95.0935 40.552V51H91.1415V40.552C91.1415 39.5493 90.9122 38.776 90.4535 38.232C89.9948 37.6773 89.2962 37.4 88.3575 37.4C87.6748 37.4 87.0348 37.5547 86.4375 37.864C85.8402 38.1733 85.2748 38.5947 84.7415 39.128V51H80.7895V34.584H83.2055C83.7175 34.584 84.0535 34.824 84.2135 35.304L84.4855 36.6ZM112.628 40.904C112.628 40.392 112.553 39.912 112.404 39.464C112.265 39.0053 112.052 38.6053 111.764 38.264C111.476 37.9227 111.108 37.656 110.66 37.464C110.223 37.2613 109.711 37.16 109.124 37.16C107.983 37.16 107.081 37.4853 106.42 38.136C105.769 38.7867 105.353 39.7093 105.172 40.904H112.628ZM105.092 43.288C105.156 44.1307 105.305 44.8613 105.54 45.48C105.775 46.088 106.084 46.5947 106.468 47C106.852 47.3947 107.305 47.6933 107.828 47.896C108.361 48.088 108.948 48.184 109.588 48.184C110.228 48.184 110.777 48.1093 111.236 47.96C111.705 47.8107 112.111 47.6453 112.452 47.464C112.804 47.2827 113.108 47.1173 113.364 46.968C113.631 46.8187 113.887 46.744 114.132 46.744C114.463 46.744 114.708 46.8667 114.868 47.112L116.004 48.552C115.567 49.064 115.076 49.496 114.532 49.848C113.988 50.1893 113.417 50.4667 112.82 50.68C112.233 50.8827 111.631 51.0267 111.012 51.112C110.404 51.1973 109.812 51.24 109.236 51.24C108.095 51.24 107.033 51.0533 106.052 50.68C105.071 50.296 104.217 49.736 103.492 49C102.767 48.2533 102.196 47.336 101.78 46.248C101.364 45.1493 101.156 43.88 101.156 42.44C101.156 41.32 101.337 40.2693 101.7 39.288C102.063 38.296 102.58 37.4373 103.252 36.712C103.935 35.976 104.761 35.3947 105.732 34.968C106.713 34.5413 107.817 34.328 109.044 34.328C110.079 34.328 111.033 34.4933 111.908 34.824C112.783 35.1547 113.535 35.64 114.164 36.28C114.793 36.9093 115.284 37.688 115.636 38.616C115.999 39.5333 116.18 40.584 116.18 41.768C116.18 42.3653 116.116 42.7707 115.988 42.984C115.86 43.1867 115.615 43.288 115.252 43.288H105.092ZM134.106 38.056C133.988 38.2053 133.871 38.3227 133.754 38.408C133.647 38.4933 133.487 38.536 133.274 38.536C133.071 38.536 132.874 38.4773 132.682 38.36C132.49 38.232 132.26 38.0933 131.994 37.944C131.727 37.784 131.407 37.6453 131.034 37.528C130.671 37.4 130.218 37.336 129.674 37.336C128.98 37.336 128.372 37.464 127.85 37.72C127.327 37.9653 126.89 38.3227 126.538 38.792C126.196 39.2613 125.94 39.832 125.77 40.504C125.599 41.1653 125.514 41.9173 125.514 42.76C125.514 43.6347 125.604 44.4133 125.786 45.096C125.978 45.7787 126.25 46.3547 126.602 46.824C126.954 47.2827 127.38 47.6347 127.882 47.88C128.383 48.1147 128.948 48.232 129.578 48.232C130.207 48.232 130.714 48.1573 131.098 48.008C131.492 47.848 131.823 47.6773 132.09 47.496C132.356 47.304 132.586 47.1333 132.778 46.984C132.98 46.824 133.204 46.744 133.45 46.744C133.77 46.744 134.01 46.8667 134.17 47.112L135.306 48.552C134.868 49.064 134.394 49.496 133.882 49.848C133.37 50.1893 132.836 50.4667 132.282 50.68C131.738 50.8827 131.172 51.0267 130.586 51.112C130.01 51.1973 129.434 51.24 128.858 51.24C127.844 51.24 126.89 51.0533 125.994 50.68C125.098 50.296 124.314 49.7413 123.642 49.016C122.97 48.2907 122.436 47.4053 122.042 46.36C121.658 45.304 121.466 44.104 121.466 42.76C121.466 41.5547 121.636 40.44 121.978 39.416C122.33 38.3813 122.842 37.4907 123.514 36.744C124.186 35.9867 125.018 35.3947 126.01 34.968C127.002 34.5413 128.143 34.328 129.434 34.328C130.66 34.328 131.732 34.5253 132.65 34.92C133.578 35.3147 134.41 35.88 135.146 36.616L134.106 38.056ZM146.455 51.256C145.026 51.256 143.927 50.856 143.159 50.056C142.402 49.2453 142.023 48.1307 142.023 46.712V37.544H140.343C140.13 37.544 139.949 37.4747 139.799 37.336C139.65 37.1973 139.575 36.9893 139.575 36.712V35.144L142.215 34.712L143.047 30.232C143.101 30.0187 143.202 29.8533 143.351 29.736C143.501 29.6187 143.693 29.56 143.927 29.56H145.975V34.728H150.359V37.544H145.975V46.44C145.975 46.952 146.098 47.352 146.343 47.64C146.599 47.928 146.946 48.072 147.383 48.072C147.629 48.072 147.831 48.0453 147.991 47.992C148.162 47.928 148.306 47.864 148.423 47.8C148.551 47.736 148.663 47.6773 148.759 47.624C148.855 47.56 148.951 47.528 149.047 47.528C149.165 47.528 149.261 47.56 149.335 47.624C149.41 47.6773 149.49 47.7627 149.575 47.88L150.759 49.8C150.183 50.28 149.522 50.6427 148.775 50.888C148.029 51.1333 147.255 51.256 146.455 51.256Z" fill="#0062B9"/>
<path d="M14.6252 24.4486C16.149 22.468 16.31 18.3856 15.944 17.9923C15.578 17.599 12.5025 18.8603 10.9985 20.5031C9.24368 22.4198 8.0854 26.3188 8.69063 26.9593C9.29585 27.5998 13.0291 26.523 14.6252 24.4486Z" fill="#FCAA00"/>
<path d="M24.2979 49.752C22.2678 50.6101 20.3087 50.9574 18.4206 50.7942C16.5239 50.6071 14.8494 49.9554 13.3969 48.839C11.9678 47.7128 10.9089 46.1966 10.2202 44.2906C9.52284 42.3607 9.35065 40.4698 9.7036 38.6178C10.0713 36.7322 10.8978 35.0371 12.1833 33.5325C13.4601 32.0042 15.1136 30.811 17.1437 29.9529C19.1272 29.1146 21.0089 28.8137 22.7889 29.0501C24.5603 29.2626 26.0802 30.0072 27.3484 31.2839L23.9526 35.3969C23.1354 34.6986 22.2759 34.2928 21.3743 34.1796C20.4959 34.0565 19.6251 34.1773 18.7617 34.5423C17.8283 34.9367 17.0657 35.5062 16.474 36.2507C15.8822 36.9951 15.5067 37.8542 15.3475 38.8278C15.2115 39.7916 15.3459 40.8334 15.7505 41.9532C16.1552 43.073 16.7095 43.9372 17.4137 44.546C18.1411 45.1448 18.9557 45.5009 19.8574 45.6142C20.759 45.7274 21.6766 45.5868 22.61 45.1923C23.4734 44.8274 24.1936 44.2896 24.7706 43.5788C25.3623 42.8343 25.7353 41.8939 25.8896 40.7576L30.9772 41.3263C30.8367 43.1709 30.1864 44.8327 29.0263 46.3117C27.8575 47.767 26.2814 48.9137 24.2979 49.752Z" fill="#FF681D"/>
<path d="M15.5 29.5C19.2082 27.2894 24.5 28 26.5 29.8487C28.5 31.6973 28.1112 33.8888 27 35C25.0001 37 22.2066 33.6984 19 34.5C13 36 9.74796 41.9413 9.74796 41.9413C9.74796 41.9413 8 33.9711 15.5 29.5Z" fill="#FB4321"/>
<path d="M30.4157 16.9033C28.0684 13.839 22.0169 11.7526 21.3709 12.0236C20.7249 12.2947 19.7092 15.3086 20.0788 17.4455C20.7711 21.4487 24.5422 21.0422 27.5 24C29.5 26 30.4158 31 30.4158 31C30.4158 31 36.2303 24.4938 30.4157 16.9033Z" fill="#C50CB3"/>
<path d="M45.138 25.312C43.682 25.312 42.2867 25.1213 40.952 24.74C39.6173 24.3413 38.5427 23.83 37.728 23.206L39.158 20.034C39.938 20.5887 40.8567 21.048 41.914 21.412C42.9887 21.7587 44.072 21.932 45.164 21.932C45.996 21.932 46.6633 21.854 47.166 21.698C47.686 21.5247 48.0673 21.2907 48.31 20.996C48.5527 20.7013 48.674 20.3633 48.674 19.982C48.674 19.4967 48.4833 19.1153 48.102 18.838C47.7207 18.5433 47.218 18.3093 46.594 18.136C45.97 17.9453 45.2767 17.772 44.514 17.616C43.7687 17.4427 43.0147 17.2347 42.252 16.992C41.5067 16.7493 40.822 16.4373 40.198 16.056C39.574 15.6747 39.0627 15.172 38.664 14.548C38.2827 13.924 38.092 13.1267 38.092 12.156C38.092 11.116 38.3693 10.1713 38.924 9.322C39.496 8.45533 40.3453 7.77067 41.472 7.268C42.616 6.748 44.046 6.488 45.762 6.488C46.906 6.488 48.0327 6.62667 49.142 6.904C50.2513 7.164 51.2307 7.56267 52.08 8.1L50.78 11.298C49.9307 10.8127 49.0813 10.4573 48.232 10.232C47.3827 9.98933 46.5507 9.868 45.736 9.868C44.9213 9.868 44.254 9.96333 43.734 10.154C43.214 10.3447 42.8413 10.596 42.616 10.908C42.3907 11.2027 42.278 11.5493 42.278 11.948C42.278 12.416 42.4687 12.7973 42.85 13.092C43.2313 13.3693 43.734 13.5947 44.358 13.768C44.982 13.9413 45.6667 14.1147 46.412 14.288C47.1747 14.4613 47.9287 14.6607 48.674 14.886C49.4367 15.1113 50.13 15.4147 50.754 15.796C51.378 16.1773 51.8807 16.68 52.262 17.304C52.6607 17.928 52.86 18.7167 52.86 19.67C52.86 20.6927 52.574 21.6287 52.002 22.478C51.43 23.3273 50.572 24.012 49.428 24.532C48.3013 25.052 46.8713 25.312 45.138 25.312ZM60.1061 22.14L60.2101 17.2L66.7361 11.012H71.5721L65.3061 17.382L63.2001 19.098L60.1061 22.14ZM56.7521 25V5.708H60.8081V25H56.7521ZM67.1781 25L62.4461 19.124L64.9941 15.978L72.0921 25H67.1781ZM75.14 25V11.012H79.014V14.964L78.468 13.82C78.884 12.832 79.5513 12.0867 80.47 11.584C81.3886 11.064 82.5066 10.804 83.824 10.804V14.548C83.6506 14.5307 83.4946 14.522 83.356 14.522C83.2173 14.5047 83.07 14.496 82.914 14.496C81.8046 14.496 80.9033 14.8167 80.21 15.458C79.534 16.082 79.196 17.0613 79.196 18.396V25H75.14ZM87.5611 25V11.012H91.6171V25H87.5611ZM89.5891 9.062C88.8437 9.062 88.2371 8.84533 87.7691 8.412C87.3011 7.97867 87.0671 7.44133 87.0671 6.8C87.0671 6.15867 87.3011 5.62133 87.7691 5.188C88.2371 4.75467 88.8437 4.538 89.5891 4.538C90.3344 4.538 90.9411 4.746 91.4091 5.162C91.8771 5.56067 92.1111 6.08067 92.1111 6.722C92.1111 7.398 91.8771 7.96133 91.4091 8.412C90.9584 8.84533 90.3517 9.062 89.5891 9.062ZM104.949 25.208C103.771 25.208 102.739 24.948 101.855 24.428C100.971 23.908 100.278 23.1193 99.7754 22.062C99.29 20.9873 99.0474 19.6353 99.0474 18.006C99.0474 16.3593 99.2814 15.0073 99.7494 13.95C100.217 12.8927 100.893 12.104 101.777 11.584C102.661 11.064 103.719 10.804 104.949 10.804C106.267 10.804 107.445 11.1073 108.485 11.714C109.543 12.3033 110.375 13.1353 110.981 14.21C111.605 15.2847 111.917 16.55 111.917 18.006C111.917 19.4793 111.605 20.7533 110.981 21.828C110.375 22.9027 109.543 23.7347 108.485 24.324C107.445 24.9133 106.267 25.208 104.949 25.208ZM96.6814 30.044V11.012H100.555V13.872L100.477 18.032L100.737 22.166V30.044H96.6814ZM104.247 21.88C104.923 21.88 105.521 21.724 106.041 21.412C106.579 21.1 107.003 20.658 107.315 20.086C107.645 19.4967 107.809 18.8033 107.809 18.006C107.809 17.1913 107.645 16.498 107.315 15.926C107.003 15.354 106.579 14.912 106.041 14.6C105.521 14.288 104.923 14.132 104.247 14.132C103.571 14.132 102.965 14.288 102.427 14.6C101.89 14.912 101.465 15.354 101.153 15.926C100.841 16.498 100.685 17.1913 100.685 18.006C100.685 18.8033 100.841 19.4967 101.153 20.086C101.465 20.658 101.89 21.1 102.427 21.412C102.965 21.724 103.571 21.88 104.247 21.88ZM120.639 25.208C119.443 25.208 118.29 25.0693 117.181 24.792C116.089 24.4973 115.222 24.1333 114.581 23.7L115.933 20.788C116.574 21.1867 117.328 21.516 118.195 21.776C119.079 22.0187 119.945 22.14 120.795 22.14C121.731 22.14 122.389 22.0273 122.771 21.802C123.169 21.5767 123.369 21.2647 123.369 20.866C123.369 20.5367 123.213 20.294 122.901 20.138C122.606 19.9647 122.207 19.8347 121.705 19.748C121.202 19.6613 120.647 19.5747 120.041 19.488C119.451 19.4013 118.853 19.2887 118.247 19.15C117.64 18.994 117.085 18.7687 116.583 18.474C116.08 18.1793 115.673 17.7807 115.361 17.278C115.066 16.7753 114.919 16.1253 114.919 15.328C114.919 14.444 115.17 13.664 115.673 12.988C116.193 12.312 116.938 11.7833 117.909 11.402C118.879 11.0033 120.041 10.804 121.393 10.804C122.346 10.804 123.317 10.908 124.305 11.116C125.293 11.324 126.116 11.6273 126.775 12.026L125.423 14.912C124.747 14.5133 124.062 14.2447 123.369 14.106C122.693 13.95 122.034 13.872 121.393 13.872C120.491 13.872 119.833 13.9933 119.417 14.236C119.001 14.4787 118.793 14.7907 118.793 15.172C118.793 15.5187 118.94 15.7787 119.235 15.952C119.547 16.1253 119.954 16.264 120.457 16.368C120.959 16.472 121.505 16.5673 122.095 16.654C122.701 16.7233 123.308 16.836 123.915 16.992C124.521 17.148 125.067 17.3733 125.553 17.668C126.055 17.9453 126.463 18.3353 126.775 18.838C127.087 19.3233 127.243 19.9647 127.243 20.762C127.243 21.6287 126.983 22.4 126.463 23.076C125.943 23.7347 125.189 24.2547 124.201 24.636C123.23 25.0173 122.043 25.208 120.639 25.208ZM131.045 25V11.012H135.101V25H131.045ZM133.073 9.062C132.328 9.062 131.721 8.84533 131.253 8.412C130.785 7.97867 130.551 7.44133 130.551 6.8C130.551 6.15867 130.785 5.62133 131.253 5.188C131.721 4.75467 132.328 4.538 133.073 4.538C133.818 4.538 134.425 4.746 134.893 5.162C135.361 5.56067 135.595 6.08067 135.595 6.722C135.595 7.398 135.361 7.96133 134.893 8.412C134.442 8.84533 133.836 9.062 133.073 9.062Z" fill="#D9D9D9"/>
</svg>
