<svg width="32" height="32" viewBox="0 0 32 32" fill="none" xmlns="http://www.w3.org/2000/svg">
<path d="M16 32C24.8366 32 32 24.8366 32 16C32 7.16344 24.8366 0 16 0C7.16344 0 0 7.16344 0 16C0 24.8366 7.16344 32 16 32Z" fill="white"/>
<path d="M7.26875 12.9375H10.9856V24.885H7.26875V12.9375ZM9.12813 7C9.55392 7.00025 9.97009 7.12674 10.324 7.36347C10.6779 7.60021 10.9537 7.93657 11.1165 8.33003C11.2792 8.72348 11.3217 9.15636 11.2385 9.57394C11.1553 9.99153 10.9501 10.3751 10.6489 10.6761C10.3478 10.9771 9.96411 11.182 9.54647 11.265C9.12884 11.3479 8.69598 11.3052 8.30263 11.1422C7.90927 10.9792 7.57307 10.7033 7.33653 10.3492C7.1 9.99515 6.97375 9.57892 6.97375 9.15312C6.97384 8.87029 7.02963 8.59024 7.13794 8.32897C7.24625 8.06769 7.40496 7.83031 7.60502 7.63038C7.80507 7.43044 8.04254 7.27187 8.30388 7.16371C8.56521 7.05555 8.8453 6.99992 9.12813 7Z" fill="black"/>
<path d="M13.3125 12.9375H16.875V14.5712H16.9263C17.4213 13.6337 18.6331 12.6412 20.4394 12.6412C24.1994 12.6412 24.8937 15.1156 24.8937 18.3331V24.885H21.1812V19.0725C21.1812 17.6869 21.1575 15.9044 19.2519 15.9044C17.32 15.9044 17.025 17.4144 17.025 18.9731V24.8825H13.3125V12.9375Z" fill="black"/>
</svg>
